# xmcd
# Copyright (C) 1995-1998 Ti Kan
#
# Track frame offsets:
#       182
#       17652
#       41032
#       62232
#       82145
#       105120
#       132792
#       156642
#       175120
#       201165
#       225130
#       232202
#       251410
#       274525
#       284585
#       316962
#
# Disc length: 4422 seconds
#
# Revision: 0
# Processed by: cddbd v1.5.2PL0 Copyright (c) Steve Scherf et al.
# Submitted via: CD-Transfer v1.0
#
DISCID=da114410
DTITLE=Soundgarden - Chris Cornell
DYEAR=94
DGENRE=
TTITLE0=Let Me Drown
TTITLE1=My Wave
TTITLE2=Fell On Black Days
TTITLE3=Mailman
TTITLE4=Superunknown
TTITLE5=Head Down
TTITLE6=Black Hole Sun
TTITLE7=Spoonman
TTITLE8=Limo Wreck
TTITLE9=The Day I Tried To Live
TTITLE10=Kickstand
TTITLE11=Fresh Tendrils
TTITLE12=4th Of July
TTITLE13=Half
TTITLE14=Like Suicide
TTITLE15=She Likes Surprises
EXTD=
EXTT0=
EXTT1=
EXTT2=
EXTT3=
EXTT4=
EXTT5=
EXTT6=
EXTT7=
EXTT8=
EXTT9=
EXTT10=
EXTT11=
EXTT12=
EXTT13=
EXTT14=
EXTT15=
PLAYORDER=
